<svg xmlns="http://www.w3.org/2000/svg" viewBox="0 0 640 160" width="640" height="160">
  <defs>
    <linearGradient id="bgBanner" x1="0%" y1="0%" x2="100%" y2="0%">
      <stop offset="0%" style="stop-color:#003A70;stop-opacity:1" />
      <stop offset="60%" style="stop-color:#0078D4;stop-opacity:1" />
      <stop offset="100%" style="stop-color:#1A86D8;stop-opacity:1" />
    </linearGradient>
    <linearGradient id="bgIcon" x1="0%" y1="0%" x2="100%" y2="100%">
      <stop offset="0%" style="stop-color:#1A86D8;stop-opacity:1" />
      <stop offset="100%" style="stop-color:#003A70;stop-opacity:1" />
    </linearGradient>
    <filter id="dropshadow">
      <feDropShadow dx="0" dy="2" stdDeviation="2" flood-color="#001A3A" flood-opacity="0.5"/>
    </filter>
  </defs>

  <!-- Background -->
  <rect width="640" height="160" rx="16" ry="16" fill="url(#bgBanner)"/>

  <!-- Subtle grid -->
  <g opacity="0.06" stroke="white" stroke-width="0.7">
    <line x1="0" y1="40" x2="640" y2="40"/>
    <line x1="0" y1="80" x2="640" y2="80"/>
    <line x1="0" y1="120" x2="640" y2="120"/>
    <line x1="160" y1="0" x2="160" y2="160"/>
    <line x1="320" y1="0" x2="320" y2="160"/>
    <line x1="480" y1="0" x2="480" y2="160"/>
  </g>

  <!-- Icon area background (left panel) -->
  <rect x="16" y="16" width="145" height="128" rx="20" fill="url(#bgIcon)" opacity="0.7"/>

  <!-- Badge -->
  <g transform="translate(89,30)" filter="url(#dropshadow)">
    <polygon points="0,-12 12,-4 8,10 0,6 -8,10 -12,-4" fill="#E74C3C" stroke="#C0392B" stroke-width="0.8"/>
    <text x="0" y="2" text-anchor="middle" font-family="Arial, sans-serif" font-weight="bold" font-size="7" fill="white">L</text>
  </g>

  <!-- Circle with symbol -->
  <g filter="url(#dropshadow)">
    <circle cx="89" cy="90" r="38" fill="white"/>
    <circle cx="89" cy="90" r="32" fill="url(#bgIcon)"/>

    <!-- Bar chart symbol scaled from icon -->
    <g transform="translate(89,90) scale(0.842) translate(-100,-100)">
      <line x1="72" y1="117" x2="130" y2="117" stroke="#E74C3C" stroke-width="1.5" opacity="0.60"/>
      <rect x="75" y="105" width="8" height="12" rx="1.5" fill="#E74C3C" opacity="0.55"/>
      <rect x="87" y="93" width="8" height="24" rx="1.5" fill="#E74C3C" opacity="0.70"/>
      <rect x="99" y="82" width="8" height="35" rx="1.5" fill="#E74C3C" opacity="0.90"/>
      <rect x="111" y="89" width="8" height="28" rx="1.5" fill="#E74C3C" opacity="0.75"/>
      <rect x="123" y="98" width="8" height="19" rx="1.5" fill="#E74C3C" opacity="0.60"/>
      <polyline points="79,101 91,89 103,79 115,85 127,94" fill="none" stroke="white" stroke-width="1.5" stroke-dasharray="3,2" opacity="0.60"/>
      <line x1="114" y1="79" x2="128" y2="72" stroke="white" stroke-width="1.8" opacity="0.80"/>
      <polygon points="128,72 120,73 124,80" fill="white" opacity="0.80"/>
    </g>

    <circle cx="89" cy="90" r="32" fill="none" stroke="white" stroke-width="1.5" opacity="0.2"/>
  </g>

  <!-- Divider line -->
  <line x1="175" y1="24" x2="175" y2="136" stroke="white" stroke-width="0.8" opacity="0.25"/>

  <!-- Title text -->
  <text x="197" y="62" font-family="'Segoe UI', Arial, sans-serif" font-weight="700"
    font-size="34" fill="white" letter-spacing="-0.5" filter="url(#dropshadow)">Azure Local</text>
  <text x="197" y="110" font-family="'Segoe UI', Arial, sans-serif" font-weight="700"
    font-size="40" fill="#E74C3C" letter-spacing="1" filter="url(#dropshadow)">Load Testing</text>

  <!-- Tagline -->
  <text x="197" y="138" font-family="'Segoe UI', Arial, sans-serif" font-style="italic"
    font-size="14" fill="white" opacity="0.7" letter-spacing="0.5">Benchmark, validate, and tune your cluster.</text>

  <!-- Decorative dots -->
  <g fill="white" opacity="0.15">
    <circle cx="580" cy="28" r="3"/>
    <circle cx="595" cy="28" r="3"/>
    <circle cx="610" cy="28" r="3"/>
    <circle cx="587" cy="42" r="3"/>
    <circle cx="602" cy="42" r="3"/>
    <circle cx="617" cy="42" r="3"/>
  </g>
</svg>
